<svg version="1.1" xmlns="http://www.w3.org/2000/svg" xmlns:xlink="http://www.w3.org/1999/xlink" width="330.92416" height="269.35687" viewBox="0,0,330.92416,269.35687"><g transform="translate(-74.53794,-45.32157)"><g fill="#1c274c" stroke="none" stroke-miterlimit="10"><g><path d="M157.43473,123.73335c5.57322,-3.09622 12.60113,-1.0882 15.69735,4.48502l-10.09119,5.60616c10.09119,-5.60616 10.08842,-5.61124 10.09119,-5.60616l0.01108,0.02016l0.01185,0.02139l0.0257,0.04695l0.05926,0.10959l0.14822,0.28244c0.11159,0.21656 0.24827,0.48977 0.40588,0.82085c0.31538,0.66231 0.71464,1.55504 1.16747,2.68695c0.90612,2.26521 2.02325,5.48118 3.10946,9.71732c2.17425,8.48059 4.20966,20.98952 4.20966,38.07598c0,17.08646 -2.03541,29.59539 -4.20966,38.07629c-1.0862,4.23583 -2.20334,7.45118 -3.10946,9.71686c-0.45283,1.13284 -0.85209,2.02556 -1.16747,2.68741c-0.15761,0.33092 -0.29429,0.60336 -0.40588,0.82038l-0.14822,0.28321l-0.05926,0.10928l-0.0257,0.04618l-0.01185,0.02155c-0.00277,0.00462 -0.01108,0.02001 -10.10227,-5.58569l10.09119,5.6057c-3.09622,5.57338 -10.12412,7.58201 -15.69735,4.48518c-5.52597,-3.06913 -7.54692,-10.00468 -4.56275,-15.55497l0.07711,-0.157c0.10543,-0.22164 0.30737,-0.66339 0.57612,-1.33601c0.53687,-1.34217 1.34371,-3.60938 2.18148,-6.87707c1.67371,-6.52613 3.48625,-17.10493 3.48625,-32.34129c0,-15.23636 -1.81254,-25.81516 -3.48625,-32.3416c-0.83778,-3.26738 -1.64462,-5.53474 -2.18148,-6.87707c-0.26874,-0.6717 -0.47068,-1.11375 -0.57612,-1.33539l-0.07711,-0.15746c-2.98417,-5.54998 -0.96322,-12.48523 4.56275,-15.55513z" fill-rule="nonzero"/><path d="M208.34795,45.32157h24.82424c28.28709,-0.00031 50.69142,-0.00046 68.22579,2.3571c18.04537,2.42606 32.65221,7.53799 44.17145,19.05661c11.5177,11.51878 16.62932,26.12485 19.05661,44.17052c2.35649,17.53436 2.35649,39.93901 2.35649,68.22455v1.73774c0,28.28709 0,50.69142 -2.35649,68.22579c-2.42729,18.04537 -7.53891,32.65221 -19.05661,44.17145c-11.51924,11.5177 -26.12608,16.62932 -44.17145,19.05661c-17.53436,2.35649 -39.9387,2.35649 -68.22425,2.35649h-24.82562c-28.28617,0 -50.69158,0 -68.22594,-2.35649c-18.04568,-2.42729 -32.65175,-7.53891 -44.17052,-19.05661c-11.51862,-11.51924 -16.63055,-26.12608 -19.05661,-44.17145c-2.35757,-17.53436 -2.35741,-39.9387 -2.3571,-68.22579v-1.7362c-0.00031,-28.28709 -0.00046,-50.69158 2.3571,-68.22609c2.42606,-18.04568 7.53799,-32.65175 19.05661,-44.17052c11.51878,-11.51862 26.12485,-16.63055 44.17052,-19.05661c17.53452,-2.35757 39.93947,-2.35741 68.22579,-2.3571zM143.19853,70.56046c-15.48556,2.0819 -24.40743,5.98634 -30.9214,12.50031c-6.51397,6.51397 -10.41842,15.43584 -12.50031,30.9214c-2.12669,15.81756 -2.15116,36.66871 -2.15116,66.01783c0,29.34912 0.02447,50.20042 2.15116,66.0186c2.0819,15.48417 5.98634,24.40681 12.50031,30.92063c6.51397,6.51382 15.43584,10.41872 30.9214,12.4997c15.81756,2.12715 36.6684,2.15178 66.01783,2.15178h23.08773c29.34912,0 50.20042,-0.02463 66.0186,-2.15178c15.48417,-2.08097 24.40681,-5.98588 30.92063,-12.4997c6.51382,-6.51382 10.41872,-15.43646 12.4997,-30.92063c2.12715,-15.81817 2.15178,-36.66947 2.15178,-66.0186c0,-29.34912 -0.02463,-50.20027 -2.15178,-66.01783c-2.08097,-15.48556 -5.98588,-24.40743 -12.4997,-30.9214c-6.51382,-6.51397 -15.43646,-10.41842 -30.92063,-12.50031c-15.81817,-2.12669 -36.66947,-2.15116 -66.0186,-2.15116h-23.08773c-29.34943,0 -50.20027,0.02447 -66.01783,2.15116z" fill-rule="evenodd"/><path d="M382.37435,149.21636c0,-6.37545 5.16857,-11.54387 11.54387,-11.54387c6.37529,0 11.54387,5.16842 11.54387,11.54387v61.56728c0,6.37529 -5.16857,11.54387 -11.54387,11.54387c-6.37529,0 -11.54387,-5.16857 -11.54387,-11.54387z" fill-rule="nonzero"/></g></g></g></svg>