<svg
   viewBox="0 0 100 100"
   fill="#ff884c"
   version="1.1"
   id="svg1"
   width="100"
   height="100"
   xml:space="preserve"
   xmlns:xlink="http://www.w3.org/1999/xlink"
   xmlns="http://www.w3.org/2000/svg"
   xmlns:svg="http://www.w3.org/2000/svg"><defs
     id="defs1"><radialGradient
       xlink:href="#linearGradient3"
       id="radialGradient4"
       cx="80"
       cy="50"
       fx="80"
       fy="50"
       r="25"
       gradientUnits="userSpaceOnUse"
       gradientTransform="matrix(0.58844526,0.15767343,-0.15400898,0.57476935,42.620621,-20.756063)" /><linearGradient
       id="linearGradient3"><stop
         style="stop-color:#ffffff;stop-opacity:1;"
         offset="0.29274613"
         id="stop3" /><stop
         style="stop-color:#ffffff;stop-opacity:0;"
         offset="1"
         id="stop4" /></linearGradient><radialGradient
       xlink:href="#linearGradient5"
       id="radialGradient6"
       cx="21.574059"
       cy="77.228287"
       fx="21.574059"
       fy="77.228287"
       r="58.128956"
       gradientTransform="matrix(0.89376508,1.4688526e-8,0,0.86519597,32.458937,-32.043012)"
       gradientUnits="userSpaceOnUse" /><linearGradient
       id="linearGradient5"><stop
         style="stop-color:#ffc7a6;stop-opacity:0.80000001;"
         offset="0"
         id="stop5" /><stop
         style="stop-color:#ff8e4c;stop-opacity:0.80000001;"
         offset="1"
         id="stop6" /></linearGradient></defs><path
     id="circle1"
     style="fill:url(#radialGradient6);stroke:#804726;stroke-width:1.5;stroke-linecap:round;stroke-linejoin:miter;stroke-dasharray:none;stroke-opacity:0.8"
     d="M 97.56499,23.573903 C 95.234162,32.272667 86.233231,37.447251 77.321856,35.30064 77.176431,35.265711 76.88576,35.189689 76.88576,35.189689 c 0,0 1.249514,-0.944382 0.67836,-2.09786 -0.571155,-1.153476 -4.189667,-2.308979 -5.210288,-1.965581 -1.020621,0.343395 -0.265595,1.862921 -0.265595,1.862921 0,0 -4.632483,-3.389726 -6.456272,-5.18116 C 64.643489,26.837066 65.1939,25.679839 64.43761,24.48158 63.681316,23.28332 60.974214,21.008678 60.974214,21.008678 68.377009,22.02742 60.697804,17.749886 60.697804,17.749886 60.565365,10.758533 48.413448,14.645 48.413448,14.645 c 0,0 3.225244,-3.489056 -2.304615,-3.257 -5.529859,0.232056 -8.145924,3.278 -8.145924,3.278 0,0 -0.947462,-2.69584 -3.846312,-2.662 -2.89885,0.03384 -10.636682,2.522999 -10.636682,2.522999 0,0 1.802725,-5.6161519 -5.810761,-3.053128 -7.613484,2.563025 -3.14907,5.944588 -3.14907,5.944588 0,0 -1.997286,2.06031 -0.02984,11.862795 0,0 -3.425191,-2.237119 -2.481951,0.335228 4.675918,12.75188 -2.8725619,6.432633 2.654986,22.237518 0,0 -5.6017277,-2.730709 -3.57656,0.893235 2.501899,4.477033 -0.956891,8.124009 2.218784,15.89766 0,0 -1.935734,-0.822911 -2.313503,1.013154 -0.377769,1.836065 2.546728,10.764715 2.552128,13.209732 0,0 -3.194765,-0.45303 -2.445128,2.847219 0.749637,3.300249 3.058164,1.640176 3.058164,1.640176 3.007383,2.447594 8.090671,-0.754764 11.96397,-0.593976 0,0 -3.122809,2.671995 0.129543,2.9576 3.252352,0.285605 8.97133,-1.767035 12.929295,-1.570851 0,0 -1.529555,1.539445 2.65042,1.754051 4.179975,0.214606 3.712805,-1.633 3.712805,-1.633 4.521963,0.864047 8.854862,-0.601493 11.0298,-0.496 0,0 -1.27797,1.737966 1.262717,1.866 2.540687,0.128034 6.327711,-3.546195 7.224291,-0.961 0.896581,2.585196 2.720048,0.276542 4.914525,0.924 3.840206,1.133013 5.133618,-2.036 5.133618,-2.036 0,0 2.242403,2.04457 4.470083,1.61631 2.22768,-0.428259 5.783801,-0.961251 6.440725,-1.612311 0,0 1.730862,1.167363 2.130087,-1.568 0.399225,-2.735363 -1.411023,-2.426828 -1.411023,-2.426828 0.21564,-4.0022 -1.190536,-3.672588 -0.880639,-9.005964 0,0 1.987868,0.831798 2.136618,-2.308434 0.14875,-3.140232 -1.788,-5.745588 -1.788,-5.745588 0,0 3.289796,-0.869788 4.194001,-8.515185 0,0 2.600346,5.955451 0.918912,17.966999 -0.549792,3.927511 2.204174,2.62916 2.204174,2.62916 -0.310074,3.537315 -1.759047,12.137924 -3.624107,14.002984 -1.86506,1.86506 -4.289255,-0.897912 -5.820639,1.27612 -1.531384,2.174032 -4.477218,1.540982 -6.418529,2.124737 0,0 0.587014,-2.248745 -3.530606,-2.5 -4.117621,-0.251255 -3.124274,1.933403 -3.124274,1.933403 C 62.87253,92.660856 60.753812,97.707715 54.796771,94 51.54184,91.974102 53.022797,96.266474 53.022797,96.266474 43.987839,95.795305 40.568294,93.433819 35.640061,93.5 30.711827,93.56618 34.5,96 34.5,96 29.19882,95.690218 24.500278,97.550866 21.238051,95.622356 16.258118,92.678401 8.572978,97.246705 6.2,96.970042 c 0,0 1.7598399,-2.613146 1.3617502,-3.011236 C 4.3770324,90.774088 3.9076532,84.633554 5.4317542,78.035015 6.1149354,75.077207 3.0355864,76.533195 3.0355864,76.533195 2.6741827,72.030788 2.915663,70.990517 2.7582459,65.804189 c 0,0 2.7526858,1.413042 2.9554262,-4.747548 C 5.9164125,54.896051 2.286,56.19884 2.286,56.19884 2.163821,53.401982 3.785228,48.861204 4.002396,46.433821 4.219564,44.006438 1.658,42.195868 1.658,42.195868 c 0,0 2.4523299,-1.672212 2.4874053,-4.39907 0.035075,-2.726858 -1.7673083,-3.815823 -1.8408813,-8.603807 0,0 2.1077052,1.614052 2.926476,-5.611991 C 6.0497708,16.354957 2.5991478,17.762485 2.5991478,17.762485 2.2572234,9.822298 5.3327607,9.109253 5.8607846,7.0918803 6.3888085,5.0745076 2.9525803,3.5666646 2.9525803,3.5666646 6.6626412,1.7174843 11.988156,4.899933 17.820117,2.3803134 23.652078,-0.13930616 27.926569,3.6596463 34.895154,4.3036901 38.006389,4.5912337 35.465746,1.283 35.465746,1.283 45.639731,0.19371227 48.866608,3.9351897 54.026089,3.8677522 c 6.871423,-0.089813 2.168289,-2.5800316 2.168289,-2.5800316 0,0 5.397212,-0.45910219 9.71366,0.857905 4.316448,1.3170072 2.49274,5.4313018 6.688958,5.1830119 4.19622,-0.2482865 3.658488,-4.4998322 3.658488,-4.4998322 0,0 5.816624,1.7569763 6.970045,1.9327816 2.131612,0.3249025 -0.208922,-2.0680223 -0.208922,-2.0680223 0,0 1.801507,0.3080226 2.447545,0.481128 C 94.516116,5.6001591 99.93385,14.733191 97.56499,23.573887 Z" /><path
     id="path11"
     style="fill:#800000;fill-opacity:0.75;stroke:#400000;stroke-width:1.5;stroke-linecap:round;stroke-dasharray:none;stroke-opacity:0.75"
     d="m 89.449425,22.593476 c -0.05108,0.190646 1.105593,0.648862 1.105593,0.648862 0,0 -1.896538,1.296856 -2.340671,1.885818 -0.588618,0.78056 -1.323693,1.432821 -2.155818,1.929023 -0.355168,0.211788 0.04861,2.459966 0.04861,2.459966 0,0 -1.884636,-1.657427 -2.259808,-1.570419 -1.210269,0.280685 -2.510925,0.275997 -3.802332,-0.07003 -0.503935,-0.135029 -3.162733,-0.199438 -3.162733,-0.199438 0,0 0.87478,-0.805973 0.491446,-1.092099 -0.678423,-0.506384 -1.262375,-1.114873 -1.733967,-1.795305 -0.307165,-0.44319 -2.679901,0.0041 -2.679901,0.0041 0,0 1.567772,-2.356072 1.470349,-2.847658 -0.12,-0.605506 -0.165311,-1.229883 -0.128556,-1.860694 0.02876,-0.493543 -1.506384,-1.081659 -1.506384,-1.081659 0,0 2.046085,-1.334166 2.256265,-1.760977 0.253104,-0.513984 0.56218,-0.989914 0.917863,-1.422526 0.273346,-0.332466 -0.582519,-2.478946 -0.582519,-2.478946 0,0 2.220136,0.982371 2.626167,0.746871 1.718462,-0.996732 3.838173,-1.333919 5.933531,-0.772469 0.658217,0.176368 3.923745,0.61732 3.923745,0.61732 0,0 -0.992833,0.842972 -0.531616,1.283867 1.941628,1.856074 2.842114,4.646865 2.110731,7.376424 z" /><path
     id="circle3"
     style="fill:url(#radialGradient4);stroke-width:0;stroke-linecap:round"
     d="M 96.70691,24.538112 A 15.230081,14.876127 15 0 1 78.14556,34.965512 15.230081,14.876127 15 0 1 67.284656,16.654444 15.230081,14.876127 15 0 1 85.846009,6.2270421 15.230081,14.876127 15 0 1 96.70691,24.538112 Z" /><path
     id="path9"
     style="fill:#ffffff;stroke:#808080;stroke-width:1.5;stroke-linecap:round;stroke-dasharray:none"
     d="m 78.936763,16.786491 a 2.6398809,4.5620126 0 0 1 -2.639881,4.56201 2.6398809,4.5620126 0 0 1 -2.639882,-4.562011 2.6398809,4.5620126 0 0 1 2.639882,-4.562013 2.6398809,4.5620126 0 0 1 2.639881,4.562014 z" /><path
     id="ellipse9"
     style="fill:#ffffff;stroke:#808080;stroke-width:1.5;stroke-linecap:round;stroke-dasharray:none"
     d="m 88.684016,16.78649 a 2.6398809,4.5620126 0 0 1 -2.639883,4.562011 2.6398809,4.5620126 0 0 1 -2.63988,-4.562011 2.6398809,4.5620126 0 0 1 2.63988,-4.562013 2.6398809,4.5620126 0 0 1 2.639883,4.562013 z" /><path
     style="fill:#ffffff;fill-opacity:1;stroke:#808080;stroke-width:1.5;stroke-linecap:round;stroke-dasharray:none;stroke-opacity:1"
     d="m 77.537806,26.189011 7.902149,0.08981 -1.041612,-1.078387 3.726103,0.973746 c -0.49044,2.634476 -2.411733,2.958507 -3.559203,3.242485 -1.147471,0.283979 -4.532108,-0.510852 -4.532108,-0.510852 l -2.236152,0.929334 0.41057,-2.420421 z"
     id="path10" /><g
     id="g16"
     transform="matrix(-0.28196478,-0.48837733,-0.49919769,0.28821192,150.26023,45.547068)"
     style="display:inline;stroke-width:1.75395"><path
       id="path16"
       style="fill:#800000;fill-opacity:1;stroke:#400000;stroke-width:2.63092;stroke-linecap:round;stroke-dasharray:none;stroke-opacity:1"
       d="m 69.408029,78.204659 c 0,0.203822 -11.852371,-1.48888 -11.852371,-1.48888 0,0 0.2223,-1.137687 0.401801,-1.664276 0.137949,-0.404691 -0.933385,-2.317026 -0.933385,-2.317026 0,0 1.859178,0.386513 2.115913,0.04307 1.086589,-1.453532 2.605877,-2.356419 4.287205,-2.356419 0.528155,0 3.061361,-0.432954 3.061361,-0.432954 0,0 -0.574187,1.106213 -0.140451,1.422728 1.825939,1.332464 3.059927,3.875563 3.059927,6.793746 z" /><path
       style="fill:#ff8f4d;fill-opacity:1;stroke:#804726;stroke-width:2.63092;stroke-linecap:round;stroke-linejoin:miter;stroke-dasharray:none;stroke-opacity:1"
       d="m 71.109305,79.739833 c 0,0 4.975469,5.640105 5.870976,9.152209 0.454043,1.780719 1.285894,4.747056 -0.391365,5.499171 -2.513774,1.127235 -6.546562,-5.043207 -6.546562,-5.043207 0,0 2.645871,9.143094 1.377444,13.477344 -0.403581,1.37906 -1.24428,3.35496 -2.681167,3.37596 -1.470122,0.0215 -2.239048,-2.03188 -2.842946,-3.37241 -1.16668,-2.5898 -1.240604,-8.430586 -1.240604,-8.430586 0,0 0.624126,6.014306 -0.424059,8.734116 -0.52648,1.3661 -1.325652,3.49653 -2.786185,3.39527 -1.54125,-0.10686 -2.099987,-2.44243 -2.417583,-3.95438 -0.636578,-3.030507 1.247058,-9.205852 1.247058,-9.205852 0,0 -1.246918,6.757042 -3.267598,9.379792 -0.835321,1.08421 -2.118765,2.76349 -3.404762,2.295 -1.545315,-0.56296 -1.54524,-3.10918 -1.3587,-4.74323 0.37189,-3.257664 4.77025,-8.602371 4.77025,-8.602371 0,0 -2.576661,3.855248 -4.456799,5.109293 -1.334446,0.890069 -3.249372,2.447257 -4.563357,1.52725 -1.184417,-0.829288 -0.558069,-2.960323 -0.113473,-4.336149 0.724344,-2.241526 3.205591,-3.526129 4.284,-5.620443 1.991864,-3.868284 3.069604,-7.190548 3.85434,-12.470941 l 14.846524,0.589801 z"
       id="path15" /><path
       id="rect16"
       style="fill:#b26436;fill-opacity:1;stroke:#59321a;stroke-width:2.63092;stroke-linecap:round;stroke-dasharray:none;stroke-opacity:1"
       d="m 59.193062,80.953821 7.993755,0.31603 c 1.107135,0.04377 1.963201,0.970312 1.919431,2.077447 l -0.07901,1.998439 c -0.04377,1.107135 -0.970311,1.963202 -2.077447,1.919432 l -7.993755,-0.31603 c -1.107135,-0.04377 -1.963201,-0.970312 -1.919431,-2.077447 l 0.07901,-1.998439 c 0.04377,-1.107135 0.970311,-1.963202 2.077447,-1.919432 z" /></g><g
     id="g3"
     transform="matrix(0.54471414,0.14595571,-0.14918947,0.55678267,29.457499,-46.902617)"
     style="display:inline;stroke-width:1.75395"><path
       id="path1"
       style="fill:#800000;fill-opacity:1;stroke:#400000;stroke-width:2.63092;stroke-linecap:round;stroke-dasharray:none;stroke-opacity:1"
       d="m 69.408029,78.204659 c 0,0.203822 -11.852371,-1.48888 -11.852371,-1.48888 0,0 0.2223,-1.137687 0.401801,-1.664276 0.137949,-0.404691 -0.933385,-2.317026 -0.933385,-2.317026 0,0 1.859178,0.386513 2.115913,0.04307 1.086589,-1.453532 2.605877,-2.356419 4.287205,-2.356419 0.528155,0 3.061361,-0.432954 3.061361,-0.432954 0,0 -0.574187,1.106213 -0.140451,1.422728 1.825939,1.332464 3.059927,3.875563 3.059927,6.793746 z" /><path
       style="fill:#ff8f4d;fill-opacity:1;stroke:#804726;stroke-width:2.63092;stroke-linecap:round;stroke-linejoin:miter;stroke-dasharray:none;stroke-opacity:1"
       d="m 71.109305,79.739833 c 0,0 4.975469,5.640105 5.870976,9.152209 0.454043,1.780719 1.285894,4.747056 -0.391365,5.499171 -2.513774,1.127235 -6.546562,-5.043207 -6.546562,-5.043207 0,0 2.645871,9.143094 1.377444,13.477344 -0.403581,1.37906 -1.24428,3.35496 -2.681167,3.37596 -1.470122,0.0215 -2.239048,-2.03188 -2.842946,-3.37241 -1.16668,-2.5898 -1.240604,-8.430586 -1.240604,-8.430586 0,0 0.624126,6.014306 -0.424059,8.734116 -0.52648,1.3661 -1.325652,3.49653 -2.786185,3.39527 -1.54125,-0.10686 -2.099987,-2.44243 -2.417583,-3.95438 -0.636578,-3.030507 1.247058,-9.205852 1.247058,-9.205852 0,0 -1.246918,6.757042 -3.267598,9.379792 -0.835321,1.08421 -2.118765,2.76349 -3.404762,2.295 -1.545315,-0.56296 -1.54524,-3.10918 -1.3587,-4.74323 0.37189,-3.257664 4.77025,-8.602371 4.77025,-8.602371 0,0 -2.576661,3.855248 -4.456799,5.109293 -1.334446,0.890069 -3.249372,2.447257 -4.563357,1.52725 -1.184417,-0.829288 -0.558069,-2.960323 -0.113473,-4.336149 0.724344,-2.241526 3.205591,-3.526129 4.284,-5.620443 1.991864,-3.868284 3.069604,-7.190548 3.85434,-12.470941 l 14.846524,0.589801 z"
       id="path2" /><path
       id="path3"
       style="fill:#b26436;fill-opacity:1;stroke:#59321a;stroke-width:2.63092;stroke-linecap:round;stroke-dasharray:none;stroke-opacity:1"
       d="m 59.193062,80.953821 7.993755,0.31603 c 1.107135,0.04377 1.963201,0.970312 1.919431,2.077447 l -0.07901,1.998439 c -0.04377,1.107135 -0.970311,1.963202 -2.077447,1.919432 l -7.993755,-0.31603 c -1.107135,-0.04377 -1.963201,-0.970312 -1.919431,-2.077447 l 0.07901,-1.998439 c 0.04377,-1.107135 0.970311,-1.963202 2.077447,-1.919432 z" /></g></svg>
